<svg xmlns="http://www.w3.org/2000/svg" width="14" height="31" viewBox="0 0 14 31">
  <path fill="#FFF" d="M366.568154,1303.23759 L347.402724,1303.23759 L347.402724,1304.27356 L366.533621,1304.27356 C368.053043,1304.27356 369.5034,1304.92967 370.470304,1306.06924 C372.162387,1308.03758 372.127855,1310.97282 370.435772,1312.90663 L370.435772,1312.9757 C369.434335,1314.11526 368.01851,1314.77138 366.499089,1314.77138 L347.713515,1314.77138 C346.643013,1314.77138 345.641577,1314.32246 344.916398,1313.56275 L344.881866,1313.52821 C343.500574,1312.07786 343.500574,1309.76419 344.847334,1308.2793 C345.572512,1307.48506 346.608481,1307.03614 347.678983,1307.03614 L362.804132,1307.03614 C363.460246,1307.03614 364.11636,1307.3124 364.56528,1307.79585 C365.428588,1308.69369 365.46312,1310.07498 364.634344,1311.04189 L364.496215,1311.21455 C364.047295,1311.73253 363.356649,1312.04332 362.666003,1312.04332 L347.402724,1312.04332 L347.402724,1313.07929 L362.631471,1313.07929 C363.632908,1313.07929 364.599812,1312.63037 365.255926,1311.87066 L365.394055,1311.698 C366.568154,1310.35124 366.499089,1308.3829 365.290458,1307.07067 C364.634344,1306.38003 363.736505,1306.00017 362.7696,1306.00017 L347.64445,1306.00017 C346.29769,1306.00017 344.985463,1306.58722 344.05309,1307.55412 C342.326475,1309.41887 342.326475,1312.35412 344.087623,1314.21886 L344.122155,1314.25339 C345.054527,1315.2203 346.332223,1315.80735 347.678983,1315.80735 L366.499089,1315.80735 C368.294769,1315.80735 370.021384,1315.0131 371.195482,1313.66634 L371.230015,1313.63181 C373.267421,1311.31815 373.267421,1307.79585 371.264547,1305.44765 C370.124981,1304.03183 368.398366,1303.23759 366.568154,1303.23759 Z" transform="rotate(-90 -464.738 838.022)"/>
</svg>
